<?xml version="1.0" encoding="UTF-8"?>
<!-- Generator: Adobe Illustrator 16.0.0, SVG Export Plug-In . SVG Version: 6.00 Build 0)  -->
<!DOCTYPE svg PUBLIC "-//W3C//DTD SVG 1.1//EN" "http://www.w3.org/Graphics/SVG/1.1/DTD/svg11.dtd">
<svg version="1.1" id="Layer_1" xmlns="http://www.w3.org/2000/svg" xmlns:xlink="http://www.w3.org/1999/xlink" x="0px" y="0px" width="509.336px" height="143.102px" viewBox="0 0 509.336 143.102" enable-background="new 0 0 509.336 143.102" xml:space="preserve">
<g>
	<g>
		<path fill="#202A56" d="M509.262,125.551L495.779,9.727C495.134,4.184,490.436,0,484.854,0H24.482    c-5.583,0-10.279,4.184-10.925,9.727L0.074,125.551c-0.403,3.451,0.852,6.891,3.38,9.275c2.527,2.381,6.032,3.43,9.457,2.827    c51.188-9.039,119.555-14.721,152.979-17.145l8.553,16.625c1.893,3.68,5.677,5.967,9.777,5.967c0.223,0,0.445-0.006,0.67-0.02    l4.743-0.289c25.294-1.541,37.99-2.314,65.035-2.314c23.116,0,33.354,0.564,53.744,1.687l7.206,0.395    c4.293,0.262,8.368-2.08,10.36-5.916l8.693-16.758c34.387,2.285,105.625,7.855,161.75,17.77c3.432,0.603,6.932-0.444,9.458-2.827    C508.411,132.441,509.664,129.002,509.262,125.551z"/>
	</g>
	<g>
		<path fill="#68BC47" d="M184.223,133.675c-0.586,0-1.127-0.327-1.397-0.854l-11.398-22.157    c-37.431,2.605-107.003,8.317-160.154,17.705c-0.49,0.089-0.99-0.063-1.352-0.403c-0.362-0.34-0.54-0.832-0.482-1.325    L22.922,10.818c0.092-0.792,0.763-1.39,1.561-1.39h460.371c0.799,0,1.47,0.598,1.562,1.39l13.483,115.822    c0.058,0.493-0.121,0.984-0.482,1.325s-0.863,0.492-1.352,0.403c-60.172-10.627-137.414-16.291-168.924-18.289l-11.531,22.222    c-0.283,0.548-0.867,0.872-1.479,0.846l-7.146-0.393c-20.586-1.134-30.92-1.703-54.315-1.703c-27.331,0-40.122,0.779-65.605,2.331    l-4.745,0.289C184.286,133.674,184.254,133.675,184.223,133.675z M172.351,107.454c0.586,0,1.127,0.325,1.397,0.853l11.402,22.166    l3.721-0.227c25.547-1.557,38.37-2.337,65.797-2.337c23.482,0,33.846,0.57,54.489,1.708l6.13,0.337l11.535-22.23    c0.287-0.552,0.853-0.878,1.492-0.845c30.537,1.921,107.536,7.495,168.218,18.032L483.455,12.571H25.881L12.804,124.911    c53.511-9.282,122.681-14.909,159.438-17.453C172.278,107.455,172.314,107.454,172.351,107.454z"/>
	</g>
	<g>
		<g>
			<g>
				<path fill="#070707" d="M80.24,103.48c-3.119,0.416-4.677,0.627-7.798,1.062c-2.549,0.354-3.695-0.765-3.439-3.371      c1.436-14.584,2.844-28.949,4.239-43.097c-4.712,8.585-7.09,12.98-11.892,21.992c-0.814,1.543-2.025,2.404-3.633,2.578      c-1.605,0.174-2.645-0.449-3.115-1.877c-2.99-8.309-4.469-12.506-7.396-20.998c-1.645,14.855-3.318,29.945-5.018,45.279      c-0.305,2.742-1.738,4.322-4.301,4.744c-3.14,0.52-4.71,0.785-7.854,1.321c-2.533,0.433-3.63-0.764-3.297-3.592      c3.248-27.586,6.404-54.393,9.474-80.453c0.305-2.59,1.646-3.881,4.028-3.881c3.483,0,5.227,0,8.709,0      c1.51,0,2.519,0.732,3.029,2.193c3.566,10.459,5.373,15.615,9.037,25.799c5.863-10.67,8.762-15.838,14.496-25.891      c0.775-1.404,1.937-2.103,3.48-2.103c3.482,0,5.223,0,8.705,0c2.416,0,3.519,1.168,3.306,3.51      c-2.143,23.543-4.339,47.691-6.597,72.474C84.174,101.709,82.784,103.145,80.24,103.48z"/>
				<path fill="#070707" d="M129.594,94.996c-0.825-5.634-1.233-8.443-2.048-14.064c-6.347,0.479-9.521,0.734-15.873,1.273      c-1.672,5.948-2.513,8.948-4.203,15.006c-0.58,2.016-1.908,3.145-3.986,3.383c-3.151,0.365-4.728,0.549-7.881,0.932      c-1.234,0.152-2.178-0.215-2.845-0.991c-0.662-0.775-0.876-1.787-0.522-3.031c6.973-24.484,13.836-48.342,20.656-71.582      c0.515-1.822,1.762-2.73,3.741-2.73c5.837,0,8.757,0,14.594,0c1.979,0,3.11,0.883,3.394,2.65      c3.28,21.656,6.734,43.813,10.354,66.481c0.142,1.111-0.182,2.101-0.966,2.968c-0.822,0.905-1.813,1.41-2.969,1.512      c-3.161,0.271-4.741,0.414-7.9,0.709C131.032,97.703,129.849,96.869,129.594,94.996z M125.524,67.066      c-1.291-8.918-1.929-13.367-3.194-22.268c-2.59,9.014-3.896,13.588-6.532,22.856C119.69,67.41,121.636,67.293,125.524,67.066z"/>
				<path fill="#070707" d="M195.982,93.195c-3.292,0.146-4.94,0.226-8.234,0.394c-1.68,0.084-2.804-0.566-3.377-1.963      c-4.365-10.746-6.527-16.111-10.804-26.853c-1.775,0.066-2.662,0.101-4.437,0.168c-0.503,10.48-0.759,15.761-1.269,26.416      c-0.109,2.269-1.425,3.486-3.947,3.662c-3.089,0.213-4.635,0.324-7.726,0.558c-2.524,0.188-3.721-0.867-3.591-3.171      c1.267-22.52,2.504-44.518,3.711-66.008c0.121-2.141,1.388-3.209,3.804-3.209c10.286,0,15.431,0,25.716,0      c3.858,0,7.234,1.26,10.138,3.769c2.912,2.516,4.321,5.436,4.216,8.791c-0.188,6.067-0.285,9.114-0.476,15.244      c-0.085,2.713-1.137,5.202-3.16,7.475c-2.027,2.275-4.486,3.924-7.372,4.936c4.144,10.033,6.235,15.052,10.458,25.127      c0.454,1.113,0.302,2.152-0.46,3.099C198.381,92.613,197.312,93.135,195.982,93.195z M184.815,51.328      c0.246-6.229,0.372-9.328,0.615-15.496c-5.964,0.059-8.947,0.092-14.912,0.164c-0.3,6.243-0.449,9.385-0.752,15.694      C175.786,51.531,178.796,51.457,184.815,51.328z"/>
				<path fill="#070707" d="M219.043,92.371c-3.081,0.082-4.62,0.129-7.702,0.229c-2.516,0.08-3.742-0.977-3.685-3.174      c0.558-21.527,1.104-42.578,1.645-63.162c0.054-2.051,1.287-3.076,3.703-3.076c2.959,0,4.438,0,7.397,0      c2.415,0,3.605,1.017,3.57,3.056c-0.36,20.454-0.727,41.366-1.102,62.754C222.831,91.182,221.557,92.305,219.043,92.371z"/>
				<path fill="#070707" d="M260.928,89.84c-6.265-14.006-9.358-20.896-15.47-34.549c-0.063,13.211-0.099,19.887-0.163,33.379      c-0.011,2.174-1.27,3.27-3.784,3.295c-3.037,0.029-4.557,0.047-7.593,0.096c-2.516,0.037-3.756-1.033-3.727-3.211      c0.284-21.336,0.564-42.201,0.837-62.609c0.026-2.034,1.25-3.051,3.666-3.051c3.823,0,5.735,0,9.56,0      c1.611,0,2.731,0.646,3.364,1.939c6.041,13.248,9.099,19.928,15.289,33.49c-0.068-13.093-0.101-19.566-0.168-32.39      c-0.011-2.028,1.192-3.041,3.608-3.041c2.897,0,4.346,0,7.245,0c2.415,0,3.638,1.015,3.665,3.051      c0.28,20.398,0.566,41.25,0.859,62.574c0.029,2.152-1.193,3.203-3.671,3.162c-3.98-0.043-5.972-0.061-9.951-0.074      C262.751,91.918,261.563,91.232,260.928,89.84z"/>
				<path fill="#070707" d="M317.104,93.447c-6.565-0.319-9.85-0.459-16.412-0.696c-4.017-0.146-7.582-1.566-10.688-4.263      c-3.099-2.688-4.676-5.762-4.739-9.25c-0.262-14.782-0.522-29.34-0.779-43.672c-0.06-3.289,1.381-6.17,4.309-8.653      c2.922-2.48,6.307-3.724,10.167-3.724c6.261,0,9.392,0,15.651,0c3.855,0,7.322,1.258,10.398,3.806      c3.083,2.555,4.703,5.536,4.852,8.918c0.039,0.883,0.061,1.323,0.1,2.211c0.092,2.098-1.068,3.129-3.475,3.092      c-2.991-0.041-4.484-0.063-7.478-0.103c-2.44-0.032-3.7-1.084-3.774-3.159c-0.031-0.875-0.047-1.313-0.077-2.185      c-6.368-0.057-9.55-0.082-15.919-0.125c0.383,14.4,0.769,29.023,1.158,43.875c6.533,0.191,9.803,0.306,16.338,0.563      c-0.228-6.388-0.34-9.564-0.565-15.892c-2.62-0.076-3.931-0.112-6.55-0.178c-2.439-0.063-3.689-1.162-3.756-3.303      c-0.077-2.619-0.115-3.926-0.192-6.529c-0.063-2.125,1.115-3.164,3.537-3.121c7.081,0.123,10.622,0.197,17.706,0.359      c2.42,0.055,3.682,1.162,3.775,3.324c0.453,10.315,0.681,15.518,1.143,26.006c0.16,3.621-1.247,6.701-4.219,9.221      C324.629,92.494,321.124,93.643,317.104,93.447z"/>
				<path fill="#070707" d="M375.809,97.629c-8.615-0.81-12.924-1.178-21.526-1.84c-3.998-0.312-7.479-1.851-10.444-4.593      c-2.955-2.739-4.512-5.866-4.684-9.422c-0.899-18.842-1.786-37.313-2.653-55.426c-0.099-2.109,1.056-3.16,3.47-3.16      c12.219,0,18.327,0,30.547,0c2.416,0,3.701,1.101,3.852,3.299c0.186,2.703,0.279,4.058,0.467,6.771      c0.152,2.191-0.992,3.268-3.431,3.229c-7.894-0.135-11.841-0.194-19.732-0.307c0.354,6.338,0.534,9.527,0.892,15.93      c6.66,0.207,9.992,0.32,16.653,0.563c2.462,0.088,3.769,1.264,3.919,3.524c0.187,2.781,0.281,4.175,0.469,6.964      c0.15,2.286-1.014,3.36-3.491,3.229c-6.72-0.356-10.078-0.522-16.794-0.828c0.367,6.541,0.553,9.83,0.923,16.441      c8.241,0.518,12.364,0.807,20.616,1.434c2.507,0.189,3.842,1.459,4.002,3.808c0.199,2.866,0.299,4.303,0.496,7.18      C379.52,96.799,378.339,97.865,375.809,97.629z"/>
				<path fill="#070707" d="M423.199,102.924c-8.664-1.123-12.993-1.65-21.641-2.631c-4.017-0.455-7.554-2.199-10.604-5.195      c-3.04-2.986-4.69-6.336-4.964-10.092c-1.449-19.902-2.866-39.394-4.26-58.486c-0.16-2.223,0.965-3.33,3.377-3.33      c12.219,0,18.336,0,30.552,0c2.418,0,3.731,1.174,3.948,3.529c0.267,2.893,0.402,4.342,0.672,7.246      c0.216,2.346-0.893,3.49-3.331,3.434c-7.904-0.184-11.856-0.271-19.757-0.434c0.543,6.727,0.813,10.106,1.36,16.906      c6.671,0.307,10.013,0.463,16.688,0.803c2.464,0.125,3.811,1.399,4.029,3.824c0.271,2.977,0.405,4.469,0.676,7.461      c0.227,2.446-0.91,3.578-3.397,3.393c-6.739-0.502-10.108-0.738-16.844-1.186c0.562,6.953,0.84,10.448,1.405,17.479      c8.277,0.763,12.418,1.174,20.706,2.045c2.521,0.267,3.898,1.662,4.133,4.187c0.284,3.078,0.429,4.625,0.717,7.719      C426.899,102.148,425.743,103.254,423.199,102.924z"/>
				<path fill="#070707" d="M471.271,28.795c-5.115,14.795-7.727,22.02-13.038,36.205c7.427,13.266,14.781,26.791,22.066,40.574      c0.768,1.467,0.888,2.868,0.323,4.09c-0.557,1.198-1.6,1.686-3.027,1.442c-3.484-0.594-5.229-0.891-8.712-1.461      c-1.674-0.276-2.913-1.246-3.726-2.908c-7.676-14.545-11.461-21.524-18.913-34.981c1.267,12.244,1.907,18.426,3.199,30.908      c0.273,2.66-0.862,3.797-3.416,3.424c-3.126-0.461-4.688-0.687-7.812-1.127c-2.517-0.355-3.896-1.824-4.144-4.408      c-2.438-25.242-4.796-49.832-7.102-73.791c-0.229-2.383,0.846-3.572,3.229-3.572c2.958,0,4.437,0,7.395,0      c2.417,0,3.749,1.222,4.002,3.666c1.209,11.668,1.82,17.556,3.053,29.445c4.677-12.18,6.975-18.361,11.505-30.967      c0.513-1.426,1.52-2.146,3.028-2.146c3.282,0,4.926,0,8.205,0c1.312,0,2.467,0.625,3.283,1.828      C471.514,26.254,471.699,27.576,471.271,28.795z"/>
			</g>
		</g>
		<g>
			<g>
				<path fill="#E5E5E4" d="M81.923,101.799c-3.119,0.416-4.678,0.625-7.799,1.061c-2.549,0.355-3.695-0.766-3.439-3.371      c1.436-14.584,2.845-28.948,4.239-43.096c-4.712,8.584-7.089,12.979-11.891,21.992c-0.815,1.543-2.026,2.402-3.633,2.578      c-1.606,0.174-2.646-0.449-3.115-1.877c-2.99-8.312-4.47-12.506-7.397-20.998c-1.644,14.854-3.318,29.945-5.018,45.279      c-0.304,2.741-1.738,4.321-4.301,4.743c-3.139,0.521-4.709,0.785-7.854,1.322c-2.533,0.432-3.629-0.764-3.297-3.592      c3.248-27.586,6.405-54.394,9.474-80.453c0.305-2.59,1.647-3.881,4.028-3.881c3.483,0,5.227,0,8.709,0      c1.51,0,2.519,0.731,3.029,2.193c3.566,10.459,5.373,15.612,9.037,25.799c5.863-10.67,8.762-15.838,14.497-25.894      c0.775-1.403,1.936-2.1,3.479-2.1c3.482,0,5.223,0,8.705,0c2.416,0,3.519,1.168,3.307,3.51      c-2.144,23.543-4.34,47.691-6.598,72.473C85.855,100.025,84.467,101.463,81.923,101.799z"/>
				<path fill="#E5E5E4" d="M131.276,93.314c-0.825-5.633-1.234-8.442-2.049-14.063c-6.347,0.479-9.521,0.733-15.872,1.272      c-1.672,5.947-2.513,8.949-4.204,15.006c-0.579,2.017-1.907,3.144-3.986,3.384c-3.15,0.364-4.727,0.549-7.88,0.932      c-1.235,0.15-2.179-0.215-2.845-0.994c-0.662-0.772-0.877-1.785-0.523-3.029c6.974-24.485,13.836-48.342,20.657-71.582      c0.515-1.821,1.761-2.729,3.74-2.729c5.837,0,8.757,0,14.595,0c1.979,0,3.11,0.883,3.393,2.65      c3.281,21.655,6.735,43.813,10.354,66.481c0.142,1.111-0.182,2.101-0.966,2.967c-0.821,0.906-1.812,1.408-2.969,1.511      c-3.16,0.272-4.74,0.414-7.9,0.711C132.714,96.021,131.531,95.188,131.276,93.314z M127.207,65.383      c-1.291-8.916-1.929-13.365-3.194-22.269c-2.59,9.017-3.896,13.589-6.533,22.859C121.372,65.729,123.317,65.611,127.207,65.383z      "/>
				<path fill="#E5E5E4" d="M197.665,91.512c-3.292,0.146-4.94,0.227-8.234,0.393c-1.68,0.087-2.805-0.565-3.378-1.961      c-4.365-10.748-6.526-16.11-10.804-26.852c-1.775,0.066-2.662,0.1-4.437,0.168c-0.503,10.479-0.758,15.76-1.269,26.416      c-0.108,2.268-1.424,3.486-3.946,3.662c-3.089,0.213-4.636,0.324-7.726,0.557c-2.525,0.189-3.721-0.867-3.592-3.17      c1.267-22.521,2.504-44.518,3.712-66.008c0.12-2.144,1.388-3.209,3.804-3.209c10.285,0,15.43,0,25.716,0      c3.857,0,7.234,1.26,10.138,3.768c2.912,2.517,4.32,5.437,4.216,8.789c-0.189,6.07-0.285,9.117-0.476,15.246      c-0.086,2.711-1.137,5.201-3.161,7.476c-2.026,2.274-4.485,3.924-7.372,4.936c4.144,10.033,6.235,15.051,10.458,25.127      c0.454,1.113,0.303,2.152-0.46,3.098C200.063,90.932,198.993,91.453,197.665,91.512z M186.497,49.645      c0.246-6.227,0.372-9.328,0.615-15.494c-5.963,0.06-8.947,0.093-14.912,0.162c-0.299,6.246-0.449,9.388-0.752,15.695      C177.468,49.85,180.478,49.775,186.497,49.645z"/>
				<path fill="#E5E5E4" d="M220.726,90.689c-3.082,0.082-4.621,0.129-7.702,0.23c-2.516,0.08-3.743-0.978-3.686-3.174      c0.558-21.527,1.106-42.578,1.646-63.162c0.053-2.052,1.286-3.076,3.702-3.076c2.959,0,4.438,0,7.397,0      c2.415,0,3.605,1.016,3.57,3.055c-0.359,20.453-0.726,41.367-1.102,62.754C224.514,89.498,223.238,90.623,220.726,90.689z"/>
				<path fill="#E5E5E4" d="M262.609,88.158c-6.266-14.007-9.357-20.896-15.469-34.55c-0.064,13.211-0.099,19.888-0.164,33.379      c-0.011,2.175-1.27,3.271-3.783,3.296c-3.037,0.028-4.557,0.047-7.593,0.094c-2.517,0.039-3.756-1.031-3.728-3.209      c0.285-21.336,0.565-42.203,0.837-62.609c0.027-2.035,1.25-3.051,3.666-3.051c3.823,0,5.735,0,9.561,0      c1.611,0,2.73,0.645,3.364,1.938c6.04,13.248,9.099,19.927,15.288,33.49c-0.068-13.092-0.1-19.565-0.167-32.389      c-0.012-2.029,1.192-3.041,3.606-3.041c2.898,0,4.349,0,7.248,0c2.414,0,3.637,1.014,3.664,3.051      c0.279,20.396,0.566,41.25,0.859,62.574c0.029,2.152-1.193,3.201-3.672,3.162c-3.979-0.043-5.971-0.062-9.95-0.074      C264.434,90.236,263.244,89.551,262.609,88.158z"/>
				<path fill="#E5E5E4" d="M318.786,91.766c-6.565-0.32-9.851-0.461-16.413-0.697c-4.018-0.145-7.582-1.565-10.688-4.262      c-3.101-2.688-4.677-5.762-4.74-9.25c-0.262-14.783-0.523-29.34-0.78-43.672c-0.06-3.289,1.382-6.17,4.31-8.654      c2.922-2.479,6.307-3.723,10.166-3.723c6.26,0,9.392,0,15.651,0c3.856,0,7.323,1.258,10.399,3.805      c3.084,2.554,4.703,5.537,4.852,8.918c0.039,0.883,0.061,1.324,0.1,2.211c0.092,2.099-1.07,3.129-3.476,3.093      c-2.99-0.044-4.483-0.063-7.476-0.103c-2.441-0.033-3.701-1.084-3.775-3.16c-0.031-0.875-0.047-1.313-0.077-2.186      c-6.369-0.056-9.551-0.08-15.919-0.123c0.382,14.399,0.768,29.021,1.158,43.875c6.533,0.19,9.802,0.305,16.338,0.563      c-0.229-6.387-0.341-9.565-0.566-15.891c-2.619-0.076-3.93-0.113-6.549-0.178c-2.441-0.063-3.691-1.162-3.755-3.306      c-0.078-2.616-0.117-3.924-0.194-6.528c-0.063-2.123,1.115-3.162,3.537-3.121c7.082,0.123,10.622,0.196,17.707,0.36      c2.42,0.054,3.682,1.162,3.774,3.324c0.454,10.314,0.681,15.519,1.144,26.006c0.159,3.619-1.248,6.701-4.219,9.222      C326.313,90.813,322.807,91.961,318.786,91.766z"/>
				<path fill="#E5E5E4" d="M377.489,95.945c-8.615-0.807-12.923-1.178-21.526-1.84c-3.998-0.311-7.479-1.848-10.443-4.59      c-2.955-2.74-4.513-5.867-4.684-9.422c-0.898-18.842-1.787-37.313-2.654-55.426c-0.099-2.109,1.058-3.16,3.471-3.16      c12.219,0,18.328,0,30.548,0c2.416,0,3.7,1.098,3.85,3.299c0.187,2.703,0.279,4.057,0.468,6.771      c0.151,2.19-0.992,3.268-3.431,3.229c-7.896-0.135-11.84-0.195-19.731-0.307c0.353,6.338,0.533,9.524,0.892,15.93      c6.659,0.207,9.99,0.32,16.651,0.561c2.461,0.091,3.77,1.267,3.921,3.527c0.186,2.781,0.28,4.174,0.468,6.963      c0.15,2.287-1.014,3.361-3.492,3.23c-6.718-0.357-10.076-0.523-16.792-0.828c0.366,6.541,0.552,9.83,0.921,16.438      c8.243,0.521,12.366,0.81,20.617,1.437c2.506,0.188,3.842,1.457,4.003,3.807c0.198,2.867,0.297,4.304,0.496,7.179      C381.202,95.117,380.021,96.182,377.489,95.945z"/>
				<path fill="#E5E5E4" d="M424.881,101.242c-8.663-1.123-12.992-1.65-21.64-2.632c-4.017-0.455-7.554-2.2-10.604-5.196      c-3.041-2.986-4.691-6.334-4.965-10.09c-1.447-19.904-2.865-39.394-4.259-58.486c-0.161-2.224,0.964-3.33,3.377-3.33      c12.218,0,18.335,0,30.551,0c2.418,0,3.732,1.174,3.949,3.527c0.267,2.893,0.402,4.344,0.672,7.248      c0.215,2.346-0.892,3.489-3.331,3.434c-7.904-0.187-11.855-0.271-19.758-0.434c0.544,6.727,0.813,10.106,1.361,16.905      c6.671,0.308,10.013,0.463,16.688,0.804c2.464,0.125,3.812,1.399,4.029,3.823c0.271,2.976,0.405,4.47,0.677,7.459      c0.226,2.449-0.912,3.58-3.398,3.396c-6.739-0.502-10.108-0.738-16.844-1.187c0.561,6.953,0.84,10.449,1.404,17.48      c8.277,0.762,12.418,1.174,20.707,2.045c2.521,0.266,3.899,1.66,4.133,4.186c0.284,3.078,0.429,4.623,0.716,7.72      C428.582,100.467,427.426,101.572,424.881,101.242z"/>
				<path fill="#E5E5E4" d="M472.952,27.113c-5.115,14.796-7.727,22.021-13.037,36.203c7.426,13.267,14.781,26.791,22.066,40.576      c0.768,1.467,0.888,2.869,0.323,4.09c-0.558,1.197-1.601,1.687-3.026,1.443c-3.486-0.596-5.23-0.891-8.713-1.461      c-1.675-0.277-2.912-1.246-3.727-2.908c-7.676-14.547-11.461-21.525-18.913-34.984c1.268,12.246,1.907,18.429,3.2,30.91      c0.274,2.66-0.862,3.797-3.417,3.424c-3.126-0.463-4.688-0.686-7.811-1.127c-2.518-0.354-3.896-1.823-4.144-4.407      c-2.438-25.244-4.797-49.832-7.102-73.791c-0.229-2.384,0.845-3.572,3.229-3.572c2.959,0,4.438,0,7.396,0      c2.416,0,3.748,1.221,4.001,3.666c1.209,11.668,1.819,17.555,3.053,29.445c4.676-12.181,6.975-18.361,11.505-30.968      c0.512-1.428,1.52-2.145,3.028-2.145c3.282,0,4.925,0,8.205,0c1.311,0,2.467,0.625,3.283,1.828      C473.195,24.572,473.381,25.895,472.952,27.113z"/>
			</g>
		</g>
		<g>
			<path fill="#FFFFFF" d="M328.309,51.865c-7.078-0.163-10.617-0.235-17.799-0.358c-0.853,0-1.083,0.19-1.083,0.19     c-0.002,0-0.1,0.152-0.085,0.638l0.193,6.526c0.02,0.666,0.033,1.105,1.584,1.146c2.454,0.059,3.76,0.096,6.064,0.164l2.58,0.074     l0.106,2.975c1.425-0.99,3.18-1.58,5.088-1.58c2.051,0,3.933,0.678,5.407,1.805l-0.456-10.385     C329.88,52.363,329.859,51.9,328.309,51.865z"/>
			<path fill="#FFFFFF" d="M89.144,23.635h-8.705c-0.621,0-1.094,0.16-1.546,0.977c-5.864,10.279-8.706,15.355-14.479,25.861     l-2.377,4.324l-1.67-4.644c-3.711-10.313-5.486-15.383-9.045-25.815c-0.211-0.605-0.406-0.703-0.926-0.703h-8.709     c-0.961,0-1.606,0.135-1.816,1.916l-6.494,55.143c0.02-0.002,0.041-0.006,0.06-0.01c1.468-1.973,3.796-3.266,6.442-3.266     c1.521,0,2.93,0.444,4.144,1.18c0.038-0.006,0.073-0.014,0.11-0.021l2.308-20.832l4.319-0.482     c2.66,7.719,4.107,11.84,6.613,18.822c0.963-0.404,2.019-0.631,3.128-0.631c0.417,0,0.819,0.063,1.219,0.123     c4.204-7.882,6.538-12.189,11.019-20.354l4.168,1.289l-1.58,16.068c1.477-1.771,3.672-2.92,6.156-2.92     c1.682,0,3.24,0.518,4.531,1.397l4.219-46.342c0.063-0.689-0.07-0.902-0.07-0.902C90.159,23.813,89.937,23.635,89.144,23.635z"/>
			<path fill="#FFFFFF" d="M132.675,23.635h-14.596c-1.091,0-1.385,0.357-1.604,1.133c-4.041,13.771-8.232,28.211-12.824,44.195     c1.475-1.648,3.596-2.709,5.982-2.709c1.779,0,3.408,0.596,4.742,1.576l0.728-2.563c2.638-9.272,3.942-13.848,6.533-22.865     l4.346,0.304c1.265,8.896,1.903,13.346,3.194,22.262l0.254,1.75c0.17,0.098,0.33,0.205,0.489,0.316     c1.46-1.523,3.495-2.48,5.771-2.48c1.711,0,3.29,0.539,4.594,1.449c-2.233-14.242-4.383-28.166-6.416-41.59     C133.789,23.91,133.745,23.635,132.675,23.635z"/>
			<path fill="#FFFFFF" d="M195.959,26.863c-2.515-2.172-5.355-3.229-8.683-3.229H161.56c-1.518,0-1.542,0.418-1.58,1.109     l-2.302,40.94c1.453-1.428,3.441-2.313,5.638-2.313c1.86,0,3.551,0.655,4.914,1.715c0.009,0,0.017,0,0.024,0l0.195-4.074     l8.052-0.303l0.581,1.459c0.333,0.836,0.649,1.629,0.957,2.401c0.096-0.006,0.194-0.01,0.29-0.016     c1.466-1.529,3.52-2.492,5.806-2.492c1.898,0,3.62,0.685,4.997,1.783c-0.187-0.449-0.374-0.902-0.569-1.375l-0.896-2.174     l2.218-0.775c2.513-0.885,4.682-2.336,6.446-4.317c1.68-1.886,2.528-3.869,2.598-6.063l0.477-15.244     C199.487,31.238,198.36,28.938,195.959,26.863z M188.405,51.727l-2.094,0.047c-6.017,0.131-9.023,0.203-15.039,0.363     l-2.398,0.063l0.969-20.187l2.098-0.025c5.966-0.069,8.949-0.104,14.916-0.161l2.339-0.023L188.405,51.727z"/>
			<path fill="#FFFFFF" d="M221.848,23.635h-7.396c-1.453,0-1.462,0.324-1.477,0.91c-0.332,12.717-0.67,25.637-1.01,38.711     c0.058-0.002,0.117-0.002,0.175-0.004c1.429-1.293,3.306-2.104,5.385-2.104c1.896,0,3.616,0.683,4.991,1.779l0.676-38.504     c0.007-0.381-0.064-0.537-0.082-0.558C223.107,23.865,222.853,23.635,221.848,23.635z"/>
			<path fill="#FFFFFF" d="M275.041,23.635h-7.246c-0.855,0-1.219,0.176-1.286,0.242c-0.024,0.026-0.097,0.186-0.095,0.561     l0.168,32.39l-4.254,0.938l-15.264-33.436c-0.178-0.365-0.416-0.693-1.363-0.693h-9.56c-1.428,0-1.433,0.305-1.44,0.854     L234.19,62.76c0.067,0,0.135,0,0.201,0c1.415-1.23,3.239-2.002,5.261-2.002c1.895,0,3.615,0.668,4.982,1.766l0.043-9.021     l4.26-0.898l4.457,9.953c0.037,0,0.075,0,0.112,0c3.229-1.123,7.33-1.799,11.811-1.799c4.42,0,8.477,0.658,11.686,1.754     l-0.521-38.02C276.473,23.92,276.467,23.635,275.041,23.635z"/>
			<path fill="#FFFFFF" d="M316.621,31.76l2.134,0.086l0.149,4.246c0.021,0.6,0.037,0.996,1.582,1.016l7.568,0.103     c0.815,0,1.057-0.174,1.061-0.174c0.005-0.007,0.085-0.156,0.064-0.595l-0.099-2.213c-0.12-2.756-1.444-5.145-4.046-7.299     c-2.678-2.217-5.614-3.295-8.979-3.295h-15.652c-3.34,0-6.192,1.045-8.725,3.193c-2.418,2.053-3.57,4.315-3.523,6.918     l0.509,28.424c1.387-1.133,3.135-1.84,5.065-1.84c2.123,0,4.043,0.84,5.481,2.186l-0.815-30.893l2.303,0.016     C307.068,31.682,310.252,31.707,316.621,31.76z"/>
			<path fill="#FFFFFF" d="M373.594,24.859c-0.052-0.735-0.084-1.225-1.63-1.225h-30.548c-0.922,0-1.175,0.207-1.176,0.207     c-0.023,0.035-0.088,0.225-0.069,0.623l1.886,39.363c1.377-0.886,3.041-1.402,4.834-1.402c2.183,0,4.168,0.771,5.683,2.033     l-0.169-3.013l2.464,0.111c6.721,0.307,10.084,0.473,16.81,0.828l0.275,0.01c0.578,0,0.794-0.108,0.811-0.108     c0.016-0.025,0.103-0.228,0.065-0.757l-0.47-6.965c-0.057-0.862-0.205-1.393-1.774-1.449c-6.659-0.239-9.987-0.352-16.644-0.559     l-2.039-0.066l-1.142-20.35l2.388,0.033c7.896,0.111,11.845,0.172,19.832,0.307c0.773,0,1.013-0.162,1.021-0.162     c0.007-0.012,0.094-0.188,0.059-0.686L373.594,24.859z"/>
			<path fill="#FFFFFF" d="M418.838,25.143c-0.104-1.111-0.38-1.508-1.73-1.508h-30.551c-0.846,0-1.086,0.188-1.089,0.188     c-0.028,0.041-0.104,0.271-0.069,0.755l3.076,42.221c1.362-0.857,3.004-1.359,4.769-1.359c2.223,0,4.245,0.801,5.769,2.105     l-0.285-3.551l2.574,0.17c6.742,0.448,10.113,0.686,16.861,1.188c0.118,0.008,0.23,0.012,0.34,0.012     c0.366,0,0.566-0.055,0.607-0.055c0.005,0,0.009,0.002,0.009,0.002s0.123-0.231,0.06-0.932l-0.676-7.461     c-0.12-1.312-0.57-1.732-1.927-1.801c-6.671-0.339-10.009-0.494-16.677-0.802l-1.961-0.09l-1.717-21.32l2.465,0.054     c7.901,0.162,11.855,0.248,19.885,0.434c0.65,0,0.869-0.129,0.88-0.129c0.008-0.018,0.118-0.24,0.062-0.873L418.838,25.143z"/>
			<path fill="#FFFFFF" d="M470.616,26.273c0.2-0.567,0.091-1.153-0.338-1.785c-0.391-0.573-0.861-0.854-1.44-0.854h-8.204     c-0.563,0-0.737,0.127-0.933,0.672c-4.527,12.596-6.789,18.682-11.524,31.012l-4.294-0.567l-3.051-29.445     c-0.136-1.311-0.52-1.67-1.787-1.67h-7.395c-0.619,0-0.898,0.119-0.941,0.158c-0.038,0.053-0.133,0.344-0.072,0.977l2.028,21.111     c0.785,8.152,1.577,16.383,2.374,24.68c1.325-0.785,2.888-1.244,4.568-1.244c2.346,0,4.468,0.888,6.017,2.316l-0.147-1.428     l4.165-1.31c0.877,1.584,1.697,3.066,2.482,4.488c1.395-0.709,3.014-1.121,4.752-1.121c2.554,0,4.867,0.881,6.556,2.305     c-1.896-3.44-3.796-6.873-5.692-10.262l-0.504-0.9l0.36-0.969C463.035,47.908,465.592,40.813,470.616,26.273z"/>
		</g>
	</g>
	<g>
		<g>
			<path fill="#68BC47" d="M213.935,116.962c0.051,0.205,0.076,0.306,0.127,0.511c0.573,2.313,0.426,4.012-0.407,5.098     c-0.832,1.086-2.464,1.705-4.93,1.873c-0.686,0.047-1.029,0.067-1.715,0.116c-2.677,0.189-4.727-0.192-6.187-1.167     c-1.459-0.974-2.691-2.796-3.659-5.469c-0.53-1.462-0.794-2.195-1.324-3.657c-0.969-2.674-1.058-4.588-0.229-5.746     c0.828-1.158,2.769-1.858,5.788-2.072c0.63-0.045,0.946-0.065,1.577-0.108c3-0.206,5.226,0.136,6.645,1.003     c1.418,0.867,2.407,2.488,2.996,4.857c0.034,0.138,0.051,0.207,0.085,0.345c-2.188,0.125-3.282,0.192-5.469,0.335     c-0.037-0.128-0.054-0.193-0.091-0.321c-0.23-0.81-0.611-1.366-1.144-1.67c-0.533-0.305-1.344-0.42-2.433-0.345     c-1.2,0.083-1.939,0.339-2.211,0.764s-0.162,1.393,0.328,2.903c0.376,1.163,0.564,1.745,0.94,2.908     c0.486,1.503,0.984,2.438,1.485,2.801c0.502,0.364,1.314,0.506,2.438,0.428c1.056-0.073,1.73-0.304,2.029-0.691     c0.298-0.388,0.319-1.04,0.057-1.961c-0.046-0.161-0.069-0.241-0.115-0.402C210.683,117.152,211.767,117.085,213.935,116.962z"/>
			<path fill="#68BC47" d="M221.318,123.494c-1.475-7.116-2.211-10.672-3.688-17.788c4.001-0.191,6.002-0.271,10.005-0.405     c2.82-0.094,4.894,0.315,6.197,1.209c1.303,0.894,2.042,2.402,2.245,4.521c0.045,0.471,0.067,0.707,0.112,1.178     c0.204,2.127-0.224,3.664-1.255,4.619c-1.031,0.956-2.822,1.465-5.404,1.551c-1.576,0.053-2.364,0.081-3.939,0.144     c0.326,1.899,0.488,2.851,0.813,4.75C224.37,123.353,223.353,123.398,221.318,123.494z M224.91,114.55     c1.504-0.06,2.256-0.086,3.761-0.137c0.884-0.029,1.449-0.189,1.701-0.478s0.323-0.854,0.211-1.701     c-0.055-0.412-0.083-0.619-0.138-1.031c-0.094-0.71-0.346-1.209-0.763-1.497c-0.417-0.288-1.081-0.421-1.985-0.39     c-1.465,0.05-2.198,0.079-3.663,0.137C224.384,111.492,224.56,112.511,224.91,114.55z"/>
			<path fill="#68BC47" d="M241.687,104.975c4.017-0.053,6.026-0.064,10.043-0.061c2.64,0.003,4.488,0.332,5.528,0.97     c1.04,0.639,1.514,1.714,1.439,3.227c-0.022,0.461-0.034,0.69-0.057,1.151c-0.05,1.008-0.371,1.782-0.955,2.321     c-0.584,0.538-2.603,0.975-2.603,0.975c0,0.012,2.101,0.644,2.728,1.278c0.627,0.636,0.91,1.424,0.861,2.368     c-0.021,0.423-0.033,0.635-0.055,1.058c-0.088,1.696-0.65,2.876-1.668,3.543c-1.017,0.667-2.821,0.984-5.432,0.982     c-3.521-0.003-5.282,0.008-8.804,0.055C242.303,115.694,242.098,112.123,241.687,104.975z M247.471,108.885     c0.028,1.268,0.042,1.9,0.07,3.168c1.547-0.008,2.32-0.009,3.867-0.008c0.584,0,1.004-0.095,1.258-0.287     c0.254-0.191,0.384-0.502,0.39-0.934c0.004-0.288,0.006-0.435,0.01-0.723c0.006-0.432-0.117-0.743-0.371-0.937     c-0.254-0.192-0.681-0.29-1.277-0.29C249.838,108.874,249.049,108.877,247.471,108.885z M247.617,115.476     c0.03,1.335,0.044,2.002,0.074,3.337c1.558-0.008,2.337-0.012,3.895-0.01c0.586,0.001,1.01-0.1,1.275-0.304     c0.266-0.203,0.402-0.53,0.409-0.987c0.004-0.298,0.008-0.447,0.013-0.745c0.007-0.456-0.122-0.786-0.388-0.991     c-0.265-0.205-0.698-0.309-1.297-0.31C250.006,115.464,249.21,115.468,247.617,115.476z"/>
			<path fill="#68BC47" d="M264.273,122.928c0.66-7.145,0.991-10.711,1.653-17.855c3.442,0.073,5.162,0.122,8.604,0.237     c3.287,0.11,5.484,0.565,6.563,1.34s1.427,2.068,1.064,3.877c-0.115,0.574-0.175,0.86-0.289,1.435     c-0.24,1.204-0.764,2.132-1.553,2.783s-3.134,1.113-3.134,1.113c-0.001,0.012,2.221,0.695,2.717,1.32     c0.497,0.625,0.63,1.492,0.408,2.6c-0.294,1.468-0.44,2.2-0.733,3.668c-2.08-0.096-3.121-0.139-5.202-0.217     c0.21-1.283,0.313-1.923,0.523-3.206c0.124-0.758,0.05-1.288-0.226-1.582c-0.275-0.295-0.848-0.457-1.72-0.486     c-1.168-0.04-1.755-0.058-2.923-0.092c-0.267,2.08-0.398,3.118-0.665,5.198C267.327,123,266.31,122.971,264.273,122.928z      M270.543,113.834c1.211,0.036,1.816,0.055,3.027,0.096c0.904,0.031,1.542-0.085,1.913-0.352     c0.371-0.268,0.619-0.776,0.742-1.526c0.045-0.273,0.065-0.412,0.11-0.686c0.124-0.758,0.044-1.285-0.25-1.58     s-0.904-0.46-1.827-0.491c-1.247-0.043-1.871-0.063-3.119-0.1C270.901,111.051,270.781,111.979,270.543,113.834z"/>
			<path fill="#68BC47" d="M284.283,123.68c2.862-3.578,4.361-5.356,7.481-8.902c-0.914-3.528-1.424-5.295-2.545-8.822     c2.572,0.141,3.859,0.219,6.431,0.383c0.522,2.533,0.761,3.799,1.19,6.332c1.904-2.374,2.878-3.556,4.876-5.917     c2.576,0.187,3.866,0.286,6.44,0.497c-3.222,3.229-4.78,4.853-7.789,8.112c0.877,3.818,1.251,5.726,1.875,9.54     c-2.324-0.192-3.485-0.283-5.812-0.453c-0.385-2.783-0.608-4.174-1.112-6.959c-2.168,2.603-3.22,3.908-5.265,6.526     C287.747,123.871,286.592,123.803,284.283,123.68z"/>
		</g>
	</g>
</g>
</svg>